<svg version="1.2" xmlns="http://www.w3.org/2000/svg" viewBox="0 0 895 790" width="895" height="790">
	<title>fy21_results_02mar_slides_normal_res-1-pdf-svg</title>
	<defs>
		<clipPath clipPathUnits="userSpaceOnUse" id="cp1">
			<path d="m-1346.7-9574.15h18981.75v14675.31h-18981.75z"/>
		</clipPath>
	</defs>
	<style>
		.s0 { fill: #a5cf4c } 
	</style>
	<g id="Clip-Path: Page 1" clip-path="url(#cp1)">
		<g id="Page 1">
			<path id="Path 22" class="s0" d="m680.9 185.4c-51 0-92.3-41.3-92.3-92.3 0-51.1 41.3-92.3 92.3-92.3 51 0 92.3 41.2 92.3 92.3 0 51-41.3 92.3-92.3 92.3zm-110.3 62.4c111.5 165.4 111.5 165.4 111.5 165.4 112.6-165.4 112.6-165.4 112.6-165.4 42-55.2 128.3 4.8 89.9 63.5-139 195.4-139 195.4-139 195.4 139 199.1 139 199.1 139 199.1 38.4 58.7-47.9 119.9-89.9 58.7-112.6-160.7-112.6-160.7-112.6-160.7-111.5 160.7-111.5 160.7-111.5 160.7-41.9 61.2-133 0-91-58.7 135.4-199.1 135.4-199.1 135.4-199.1-135.4-195.4-135.4-195.4-135.4-195.4-42-58.7 49.1-118.7 91-63.5zm-469.7 0c112.6 165.4 112.6 165.4 112.6 165.4 112.7-165.4 112.7-165.4 112.7-165.4 40.7-55.2 127 4.8 86.3 63.5-135.4 195.4-135.4 195.4-135.4 195.4 135.4 199.1 135.4 199.1 135.4 199.1 40.7 58.7-45.6 119.9-86.3 58.7-112.7-160.7-112.7-160.7-112.7-160.7-112.6 160.7-112.6 160.7-112.6 160.7-40.7 61.2-131.8 0-89.9-58.7 135.4-199.1 135.4-199.1 135.4-199.1-135.4-195.4-135.4-195.4-135.4-195.4-41.9-58.7 49.2-118.7 89.9-63.5zm111.4-62.4c-51 0-92.2-41.3-92.2-92.3 0-51.1 41.2-92.3 92.2-92.3 51.1 0 92.3 41.2 92.3 92.3 0 51-41.2 92.3-92.3 92.3z"/>
		</g>
	</g>
</svg>